<svg width="520" height="520" viewBox="0 0 520 520" xmlns="http://www.w3.org/2000/svg" shape-rendering="crispEdges"><rect x="210" y="65" width="25" height="5" fill="#D64545"/><rect x="285" y="65" width="25" height="5" fill="#D64545"/><rect x="200" y="70" width="50" height="5" fill="#D64545"/><rect x="270" y="70" width="50" height="5" fill="#D64545"/><rect x="160" y="75" width="5" height="5" fill="#D64545"/><rect x="195" y="75" width="15" height="5" fill="#D64545"/><rect x="210" y="75" width="10" height="5" fill="#FF8377"/><rect x="220" y="75" width="10" height="5" fill="#FF9B85"/><rect x="230" y="75" width="5" height="5" fill="#FF8377"/><rect x="235" y="75" width="5" height="5" fill="#FF6B6B"/><rect x="240" y="75" width="15" height="5" fill="#D64545"/><rect x="265" y="75" width="15" height="5" fill="#D64545"/><rect x="280" y="75" width="5" height="5" fill="#FF6B6B"/><rect x="285" y="75" width="5" height="5" fill="#FF8377"/><rect x="290" y="75" width="10" height="5" fill="#FF9B85"/><rect x="300" y="75" width="10" height="5" fill="#FF8377"/><rect x="310" y="75" width="15" height="5" fill="#D64545"/><rect x="355" y="75" width="5" height="5" fill="#D64545"/><rect x="140" y="80" width="45" height="5" fill="#D64545"/><rect x="190" y="80" width="10" height="5" fill="#D64545"/><rect x="200" y="80" width="5" height="5" fill="#FF8377"/><rect x="205" y="80" width="40" height="5" fill="#FF9B85"/><rect x="245" y="80" width="5" height="5" fill="#FF6B6B"/><rect x="250" y="80" width="20" height="5" fill="#D64545"/><rect x="270" y="80" width="5" height="5" fill="#FF6B6B"/><rect x="275" y="80" width="40" height="5" fill="#FF9B85"/><rect x="315" y="80" width="5" height="5" fill="#FF8377"/><rect x="320" y="80" width="10" height="5" fill="#D64545"/><rect x="335" y="80" width="45" height="5" fill="#D64545"/><rect x="135" y="85" width="15" height="5" fill="#D64545"/><rect x="150" y="85" width="10" height="5" fill="#FF6B6B"/><rect x="160" y="85" width="5" height="5" fill="#FF8377"/><rect x="165" y="85" width="10" height="5" fill="#FF6B6B"/><rect x="175" y="85" width="20" height="5" fill="#D64545"/><rect x="195" y="85" width="5" height="5" fill="#FF8377"/><rect x="200" y="85" width="50" height="5" fill="#FF9B85"/><rect x="250" y="85" width="5" height="5" fill="#FF6B6B"/><rect x="255" y="85" width="10" height="5" fill="#D64545"/><rect x="265" y="85" width="5" height="5" fill="#FF6B6B"/><rect x="270" y="85" width="50" height="5" fill="#FF9B85"/><rect x="320" y="85" width="5" height="5" fill="#FF8377"/><rect x="325" y="85" width="20" height="5" fill="#D64545"/><rect x="345" y="85" width="10" height="5" fill="#FF6B6B"/><rect x="355" y="85" width="5" height="5" fill="#FF8377"/><rect x="360" y="85" width="10" height="5" fill="#FF6B6B"/><rect x="370" y="85" width="15" height="5" fill="#D64545"/><rect x="130" y="90" width="15" height="5" fill="#D64545"/><rect x="145" y="90" width="5" height="5" fill="#FF8377"/><rect x="150" y="90" width="30" height="5" fill="#FF9B85"/><rect x="180" y="90" width="5" height="5" fill="#FF6B6B"/><rect x="185" y="90" width="5" height="5" fill="#D64545"/><rect x="190" y="90" width="5" height="5" fill="#FF6B6B"/><rect x="195" y="90" width="60" height="5" fill="#FF9B85"/><rect x="255" y="90" width="10" height="5" fill="#D64545"/><rect x="265" y="90" width="60" height="5" fill="#FF9B85"/><rect x="325" y="90" width="5" height="5" fill="#FF6B6B"/><rect x="330" y="90" width="5" height="5" fill="#D64545"/><rect x="335" y="90" width="5" height="5" fill="#FF6B6B"/><rect x="340" y="90" width="35" height="5" fill="#FF9B85"/><rect x="375" y="90" width="15" height="5" fill="#D64545"/><rect x="130" y="95" width="10" height="5" fill="#D64545"/><rect x="140" y="95" width="45" height="5" fill="#FF9B85"/><rect x="185" y="95" width="5" height="5" fill="#FF8377"/><rect x="190" y="95" width="65" height="5" fill="#FF9B85"/><rect x="255" y="95" width="10" height="5" fill="#D64545"/><rect x="265" y="95" width="65" height="5" fill="#FF9B85"/><rect x="330" y="95" width="5" height="5" fill="#FF8377"/><rect x="335" y="95" width="45" height="5" fill="#FF9B85"/><rect x="380" y="95" width="10" height="5" fill="#D64545"/><rect x="125" y="100" width="10" height="5" fill="#D64545"/><rect x="135" y="100" width="5" height="5" fill="#FF8377"/><rect x="140" y="100" width="110" height="5" fill="#FF9B85"/><rect x="250" y="100" width="5" height="5" fill="#FF8377"/><rect x="255" y="100" width="10" height="5" fill="#D64545"/><rect x="265" y="100" width="115" height="5" fill="#FF9B85"/><rect x="380" y="100" width="5" height="5" fill="#FF8377"/><rect x="385" y="100" width="10" height="5" fill="#D64545"/><rect x="125" y="105" width="10" height="5" fill="#D64545"/><rect x="135" y="105" width="115" height="5" fill="#FF9B85"/><rect x="250" y="105" width="5" height="5" fill="#FF6B6B"/><rect x="255" y="105" width="10" height="5" fill="#D64545"/><rect x="265" y="105" width="120" height="5" fill="#FF9B85"/><rect x="385" y="105" width="10" height="5" fill="#D64545"/><rect x="125" y="110" width="10" height="5" fill="#D64545"/><rect x="135" y="110" width="115" height="5" fill="#FF9B85"/><rect x="250" y="110" width="15" height="5" fill="#D64545"/><rect x="265" y="110" width="120" height="5" fill="#FF9B85"/><rect x="385" y="110" width="10" height="5" fill="#D64545"/><rect x="115" y="115" width="20" height="5" fill="#D64545"/><rect x="135" y="115" width="115" height="5" fill="#FF9B85"/><rect x="250" y="115" width="15" height="5" fill="#D64545"/><rect x="265" y="115" width="120" height="5" fill="#FF9B85"/><rect x="385" y="115" width="20" height="5" fill="#D64545"/><rect x="105" y="120" width="30" height="5" fill="#D64545"/><rect x="135" y="120" width="75" height="5" fill="#FF9B85"/><rect x="210" y="120" width="5" height="5" fill="#FF8377"/><rect x="215" y="120" width="5" height="5" fill="#FF6B6B"/><rect x="220" y="120" width="5" height="5" fill="#FF8377"/><rect x="225" y="120" width="25" height="5" fill="#FF9B85"/><rect x="250" y="120" width="15" height="5" fill="#D64545"/><rect x="265" y="120" width="35" height="5" fill="#FF9B85"/><rect x="300" y="120" width="5" height="5" fill="#FF6B6B"/><rect x="305" y="120" width="5" height="5" fill="#FF8377"/><rect x="310" y="120" width="75" height="5" fill="#FF9B85"/><rect x="385" y="120" width="30" height="5" fill="#D64545"/><rect x="95" y="125" width="15" height="5" fill="#D64545"/><rect x="110" y="125" width="5" height="5" fill="#FF6B6B"/><rect x="115" y="125" width="10" height="5" fill="#FF8377"/><rect x="125" y="125" width="75" height="5" fill="#FF9B85"/><rect x="200" y="125" width="5" height="5" fill="#FF8377"/><rect x="205" y="125" width="15" height="5" fill="#D64545"/><rect x="220" y="125" width="5" height="5" fill="#FF8377"/><rect x="225" y="125" width="25" height="5" fill="#FF9B85"/><rect x="250" y="125" width="15" height="5" fill="#D64545"/><rect x="265" y="125" width="30" height="5" fill="#FF9B85"/><rect x="295" y="125" width="5" height="5" fill="#FF8377"/><rect x="300" y="125" width="15" height="5" fill="#D64545"/><rect x="315" y="125" width="5" height="5" fill="#FF8377"/><rect x="320" y="125" width="80" height="5" fill="#FF9B85"/><rect x="400" y="125" width="5" height="5" fill="#FF8377"/><rect x="405" y="125" width="5" height="5" fill="#FF6B6B"/><rect x="410" y="125" width="15" height="5" fill="#D64545"/><rect x="95" y="130" width="10" height="5" fill="#D64545"/><rect x="105" y="130" width="5" height="5" fill="#FF8377"/><rect x="110" y="130" width="85" height="5" fill="#FF9B85"/><rect x="195" y="130" width="5" height="5" fill="#FF8377"/><rect x="200" y="130" width="10" height="5" fill="#D64545"/><rect x="210" y="130" width="5" height="5" fill="#FF6B6B"/><rect x="215" y="130" width="5" height="5" fill="#FF8377"/><rect x="220" y="130" width="30" height="5" fill="#FF9B85"/><rect x="250" y="130" width="15" height="5" fill="#D64545"/><rect x="265" y="130" width="35" height="5" fill="#FF9B85"/><rect x="300" y="130" width="5" height="5" fill="#FF8377"/><rect x="305" y="130" width="5" height="5" fill="#FF6B6B"/><rect x="310" y="130" width="10" height="5" fill="#D64545"/><rect x="320" y="130" width="5" height="5" fill="#FF8377"/><rect x="325" y="130" width="85" height="5" fill="#FF9B85"/><rect x="410" y="130" width="5" height="5" fill="#FF8377"/><rect x="415" y="130" width="10" height="5" fill="#D64545"/><rect x="90" y="135" width="10" height="5" fill="#D64545"/><rect x="100" y="135" width="5" height="5" fill="#FF8377"/><rect x="105" y="135" width="85" height="5" fill="#FF9B85"/><rect x="190" y="135" width="5" height="5" fill="#FF8377"/><rect x="195" y="135" width="10" height="5" fill="#D64545"/><rect x="205" y="135" width="5" height="5" fill="#FF8377"/><rect x="210" y="135" width="40" height="5" fill="#FF9B85"/><rect x="250" y="135" width="15" height="5" fill="#D64545"/><rect x="265" y="135" width="45" height="5" fill="#FF9B85"/><rect x="310" y="135" width="5" height="5" fill="#FF8377"/><rect x="315" y="135" width="10" height="5" fill="#D64545"/><rect x="325" y="135" width="5" height="5" fill="#FF8377"/><rect x="330" y="135" width="85" height="5" fill="#FF9B85"/><rect x="415" y="135" width="5" height="5" fill="#FF8377"/><rect x="420" y="135" width="10" height="5" fill="#D64545"/><rect x="90" y="140" width="5" height="5" fill="#D64545"/><rect x="95" y="140" width="5" height="5" fill="#FF6B6B"/><rect x="100" y="140" width="90" height="5" fill="#FF9B85"/><rect x="190" y="140" width="10" height="5" fill="#D64545"/><rect x="200" y="140" width="5" height="5" fill="#FF8377"/><rect x="205" y="140" width="45" height="5" fill="#FF9B85"/><rect x="250" y="140" width="15" height="5" fill="#D64545"/><rect x="265" y="140" width="50" height="5" fill="#FF9B85"/><rect x="315" y="140" width="5" height="5" fill="#FF8377"/><rect x="320" y="140" width="10" height="5" fill="#D64545"/><rect x="330" y="140" width="90" height="5" fill="#FF9B85"/><rect x="420" y="140" width="5" height="5" fill="#FF6B6B"/><rect x="425" y="140" width="5" height="5" fill="#D64545"/><rect x="85" y="145" width="10" height="5" fill="#D64545"/><rect x="95" y="145" width="40" height="5" fill="#FF8377"/><rect x="135" y="145" width="5" height="5" fill="#FF9B85"/><rect x="140" y="145" width="5" height="5" fill="#FF8377"/><rect x="145" y="145" width="10" height="5" fill="#FF9B85"/><rect x="155" y="145" width="5" height="5" fill="#FF8377"/><rect x="160" y="145" width="5" height="5" fill="#FF9B85"/><rect x="165" y="145" width="25" height="5" fill="#FF8377"/><rect x="190" y="145" width="5" height="5" fill="#D64545"/><rect x="195" y="145" width="5" height="5" fill="#FF6B6B"/><rect x="200" y="145" width="35" height="5" fill="#FF8377"/><rect x="235" y="145" width="5" height="5" fill="#FF9B85"/><rect x="240" y="145" width="5" height="5" fill="#FF8377"/><rect x="245" y="145" width="5" height="5" fill="#FF9B85"/><rect x="250" y="145" width="5" height="5" fill="#FF6B6B"/><rect x="255" y="145" width="10" height="5" fill="#D64545"/><rect x="265" y="145" width="50" height="5" fill="#FF8377"/><rect x="315" y="145" width="5" height="5" fill="#FF9B85"/><rect x="320" y="145" width="5" height="5" fill="#FF6B6B"/><rect x="325" y="145" width="5" height="5" fill="#D64545"/><rect x="330" y="145" width="10" height="5" fill="#FF8377"/><rect x="340" y="145" width="5" height="5" fill="#FF9B85"/><rect x="345" y="145" width="70" height="5" fill="#FF8377"/><rect x="415" y="145" width="5" height="5" fill="#FF9B85"/><rect x="420" y="145" width="5" height="5" fill="#FF8377"/><rect x="425" y="145" width="10" height="5" fill="#D64545"/><rect x="85" y="150" width="10" height="5" fill="#D64545"/><rect x="95" y="150" width="90" height="5" fill="#FF8377"/><rect x="185" y="150" width="10" height="5" fill="#D64545"/><rect x="195" y="150" width="55" height="5" fill="#FF8377"/><rect x="250" y="150" width="5" height="5" fill="#FF6B6B"/><rect x="255" y="150" width="10" height="5" fill="#D64545"/><rect x="265" y="150" width="60" height="5" fill="#FF8377"/><rect x="325" y="150" width="10" height="5" fill="#D64545"/><rect x="335" y="150" width="90" height="5" fill="#FF8377"/><rect x="425" y="150" width="10" height="5" fill="#D64545"/><rect x="85" y="155" width="10" height="5" fill="#D64545"/><rect x="95" y="155" width="85" height="5" fill="#FF8377"/><rect x="180" y="155" width="5" height="5" fill="#FF6B6B"/><rect x="185" y="155" width="5" height="5" fill="#D64545"/><rect x="190" y="155" width="5" height="5" fill="#FF6B6B"/><rect x="195" y="155" width="60" height="5" fill="#FF8377"/><rect x="255" y="155" width="10" height="5" fill="#D64545"/><rect x="265" y="155" width="60" height="5" fill="#FF8377"/><rect x="325" y="155" width="5" height="5" fill="#FF6B6B"/><rect x="330" y="155" width="5" height="5" fill="#D64545"/><rect x="335" y="155" width="5" height="5" fill="#FF6B6B"/><rect x="340" y="155" width="85" height="5" fill="#FF8377"/><rect x="425" y="155" width="10" height="5" fill="#D64545"/><rect x="85" y="160" width="10" height="5" fill="#D64545"/><rect x="95" y="160" width="80" height="5" fill="#FF8377"/><rect x="175" y="160" width="5" height="5" fill="#FF6B6B"/><rect x="180" y="160" width="10" height="5" fill="#D64545"/><rect x="190" y="160" width="65" height="5" fill="#FF8377"/><rect x="255" y="160" width="10" height="5" fill="#D64545"/><rect x="265" y="160" width="65" height="5" fill="#FF8377"/><rect x="330" y="160" width="10" height="5" fill="#D64545"/><rect x="340" y="160" width="5" height="5" fill="#FF6B6B"/><rect x="345" y="160" width="80" height="5" fill="#FF8377"/><rect x="425" y="160" width="10" height="5" fill="#D64545"/><rect x="90" y="165" width="5" height="5" fill="#D64545"/><rect x="95" y="165" width="5" height="5" fill="#FF6B6B"/><rect x="100" y="165" width="70" height="5" fill="#FF8377"/><rect x="170" y="165" width="15" height="5" fill="#D64545"/><rect x="185" y="165" width="70" height="5" fill="#FF8377"/><rect x="255" y="165" width="10" height="5" fill="#D64545"/><rect x="265" y="165" width="70" height="5" fill="#FF8377"/><rect x="335" y="165" width="15" height="5" fill="#D64545"/><rect x="350" y="165" width="70" height="5" fill="#FF8377"/><rect x="420" y="165" width="5" height="5" fill="#FF6B6B"/><rect x="425" y="165" width="5" height="5" fill="#D64545"/><rect x="90" y="170" width="10" height="5" fill="#D64545"/><rect x="100" y="170" width="5" height="5" fill="#FF6B6B"/><rect x="105" y="170" width="65" height="5" fill="#FF8377"/><rect x="170" y="170" width="10" height="5" fill="#FF6B6B"/><rect x="180" y="170" width="75" height="5" fill="#FF8377"/><rect x="255" y="170" width="10" height="5" fill="#D64545"/><rect x="265" y="170" width="5" height="5" fill="#FF6B6B"/><rect x="270" y="170" width="70" height="5" fill="#FF8377"/><rect x="340" y="170" width="10" height="5" fill="#FF6B6B"/><rect x="350" y="170" width="65" height="5" fill="#FF8377"/><rect x="415" y="170" width="5" height="5" fill="#FF6B6B"/><rect x="420" y="170" width="10" height="5" fill="#D64545"/><rect x="95" y="175" width="10" height="5" fill="#D64545"/><rect x="105" y="175" width="5" height="5" fill="#FF6B6B"/><rect x="110" y="175" width="145" height="5" fill="#FF8377"/><rect x="255" y="175" width="10" height="5" fill="#D64545"/><rect x="265" y="175" width="5" height="5" fill="#FF6B6B"/><rect x="270" y="175" width="140" height="5" fill="#FF8377"/><rect x="410" y="175" width="5" height="5" fill="#FF6B6B"/><rect x="415" y="175" width="10" height="5" fill="#D64545"/><rect x="95" y="180" width="15" height="5" fill="#D64545"/><rect x="110" y="180" width="145" height="5" fill="#FF8377"/><rect x="255" y="180" width="10" height="5" fill="#D64545"/><rect x="265" y="180" width="5" height="5" fill="#FF6B6B"/><rect x="270" y="180" width="140" height="5" fill="#FF8377"/><rect x="410" y="180" width="15" height="5" fill="#D64545"/><rect x="90" y="185" width="15" height="5" fill="#D64545"/><rect x="105" y="185" width="150" height="5" fill="#FF8377"/><rect x="255" y="185" width="10" height="5" fill="#D64545"/><rect x="265" y="185" width="5" height="5" fill="#FF6B6B"/><rect x="270" y="185" width="145" height="5" fill="#FF8377"/><rect x="415" y="185" width="15" height="5" fill="#D64545"/><rect x="85" y="190" width="10" height="5" fill="#D64545"/><rect x="95" y="190" width="5" height="5" fill="#FF6B6B"/><rect x="100" y="190" width="155" height="5" fill="#FF8377"/><rect x="255" y="190" width="10" height="5" fill="#D64545"/><rect x="265" y="190" width="5" height="5" fill="#FF6B6B"/><rect x="270" y="190" width="150" height="5" fill="#FF8377"/><rect x="420" y="190" width="5" height="5" fill="#FF6B6B"/><rect x="425" y="190" width="10" height="5" fill="#D64545"/><rect x="80" y="195" width="10" height="5" fill="#D64545"/><rect x="90" y="195" width="5" height="5" fill="#FF6B6B"/><rect x="95" y="195" width="95" height="5" fill="#FF8377"/><rect x="190" y="195" width="10" height="5" fill="#FF6B6B"/><rect x="200" y="195" width="55" height="5" fill="#FF8377"/><rect x="255" y="195" width="10" height="5" fill="#D64545"/><rect x="265" y="195" width="5" height="5" fill="#FF6B6B"/><rect x="270" y="195" width="50" height="5" fill="#FF8377"/><rect x="320" y="195" width="10" height="5" fill="#FF6B6B"/><rect x="330" y="195" width="95" height="5" fill="#FF8377"/><rect x="425" y="195" width="5" height="5" fill="#FF6B6B"/><rect x="430" y="195" width="10" height="5" fill="#D64545"/><rect x="80" y="200" width="10" height="5" fill="#D64545"/><rect x="90" y="200" width="90" height="5" fill="#FF8377"/><rect x="180" y="200" width="5" height="5" fill="#FF6B6B"/><rect x="185" y="200" width="15" height="5" fill="#D64545"/><rect x="200" y="200" width="5" height="5" fill="#FF6B6B"/><rect x="205" y="200" width="50" height="5" fill="#FF8377"/><rect x="255" y="200" width="10" height="5" fill="#D64545"/><rect x="265" y="200" width="5" height="5" fill="#FF6B6B"/><rect x="270" y="200" width="45" height="5" fill="#FF8377"/><rect x="315" y="200" width="5" height="5" fill="#FF6B6B"/><rect x="320" y="200" width="15" height="5" fill="#D64545"/><rect x="335" y="200" width="5" height="5" fill="#FF6B6B"/><rect x="340" y="200" width="90" height="5" fill="#FF8377"/><rect x="430" y="200" width="10" height="5" fill="#D64545"/><rect x="80" y="205" width="5" height="5" fill="#D64545"/><rect x="85" y="205" width="5" height="5" fill="#FF6B6B"/><rect x="90" y="205" width="85" height="5" fill="#FF8377"/><rect x="175" y="205" width="15" height="5" fill="#D64545"/><rect x="190" y="205" width="5" height="5" fill="#FF6B6B"/><rect x="195" y="205" width="10" height="5" fill="#FF8377"/><rect x="205" y="205" width="15" height="5" fill="#FF6B6B"/><rect x="220" y="205" width="35" height="5" fill="#FF8377"/><rect x="255" y="205" width="10" height="5" fill="#D64545"/><rect x="265" y="205" width="5" height="5" fill="#FF6B6B"/><rect x="270" y="205" width="25" height="5" fill="#FF8377"/><rect x="295" y="205" width="20" height="5" fill="#FF6B6B"/><rect x="315" y="205" width="10" height="5" fill="#FF8377"/><rect x="325" y="205" width="5" height="5" fill="#FF6B6B"/><rect x="330" y="205" width="15" height="5" fill="#D64545"/><rect x="345" y="205" width="85" height="5" fill="#FF8377"/><rect x="430" y="205" width="5" height="5" fill="#FF6B6B"/><rect x="435" y="205" width="5" height="5" fill="#D64545"/><rect x="75" y="210" width="10" height="5" fill="#D64545"/><rect x="85" y="210" width="5" height="5" fill="#FF6B6B"/><rect x="90" y="210" width="80" height="5" fill="#FF8377"/><rect x="170" y="210" width="10" height="5" fill="#D64545"/><rect x="180" y="210" width="5" height="5" fill="#FF6B6B"/><rect x="185" y="210" width="10" height="5" fill="#FF8377"/><rect x="195" y="210" width="5" height="5" fill="#FF6B6B"/><rect x="200" y="210" width="30" height="5" fill="#D64545"/><rect x="230" y="210" width="5" height="5" fill="#FF6B6B"/><rect x="235" y="210" width="20" height="5" fill="#FF8377"/><rect x="255" y="210" width="10" height="5" fill="#D64545"/><rect x="265" y="210" width="20" height="5" fill="#FF8377"/><rect x="285" y="210" width="5" height="5" fill="#FF6B6B"/><rect x="290" y="210" width="30" height="5" fill="#D64545"/><rect x="320" y="210" width="5" height="5" fill="#FF6B6B"/><rect x="325" y="210" width="10" height="5" fill="#FF8377"/><rect x="335" y="210" width="5" height="5" fill="#FF6B6B"/><rect x="340" y="210" width="10" height="5" fill="#D64545"/><rect x="350" y="210" width="80" height="5" fill="#FF8377"/><rect x="430" y="210" width="5" height="5" fill="#FF6B6B"/><rect x="435" y="210" width="10" height="5" fill="#D64545"/><rect x="75" y="215" width="10" height="5" fill="#D64545"/><rect x="85" y="215" width="5" height="5" fill="#FF6B6B"/><rect x="90" y="215" width="75" height="5" fill="#FF8377"/><rect x="165" y="215" width="5" height="5" fill="#FF6B6B"/><rect x="170" y="215" width="5" height="5" fill="#D64545"/><rect x="175" y="215" width="5" height="5" fill="#FF6B6B"/><rect x="180" y="215" width="10" height="5" fill="#FF8377"/><rect x="190" y="215" width="10" height="5" fill="#D64545"/><rect x="200" y="215" width="5" height="5" fill="#FF9B85"/><rect x="205" y="215" width="20" height="5" fill="#FFFFFF"/><rect x="225" y="215" width="5" height="5" fill="#FF9B85"/><rect x="230" y="215" width="10" height="5" fill="#D64545"/><rect x="240" y="215" width="15" height="5" fill="#FF8377"/><rect x="255" y="215" width="10" height="5" fill="#D64545"/><rect x="265" y="215" width="15" height="5" fill="#FF8377"/><rect x="280" y="215" width="10" height="5" fill="#D64545"/><rect x="290" y="215" width="5" height="5" fill="#FF9B85"/><rect x="295" y="215" width="20" height="5" fill="#FFFFFF"/><rect x="315" y="215" width="5" height="5" fill="#FF9B85"/><rect x="320" y="215" width="10" height="5" fill="#D64545"/><rect x="330" y="215" width="10" height="5" fill="#FF8377"/><rect x="340" y="215" width="5" height="5" fill="#FF6B6B"/><rect x="345" y="215" width="5" height="5" fill="#D64545"/><rect x="350" y="215" width="5" height="5" fill="#FF6B6B"/><rect x="355" y="215" width="75" height="5" fill="#FF8377"/><rect x="430" y="215" width="5" height="5" fill="#FF6B6B"/><rect x="435" y="215" width="10" height="5" fill="#D64545"/><rect x="80" y="220" width="5" height="5" fill="#D64545"/><rect x="85" y="220" width="5" height="5" fill="#FF6B6B"/><rect x="90" y="220" width="75" height="5" fill="#FF8377"/><rect x="165" y="220" width="10" height="5" fill="#D64545"/><rect x="175" y="220" width="10" height="5" fill="#FF8377"/><rect x="185" y="220" width="5" height="5" fill="#D64545"/><rect x="190" y="220" width="5" height="5" fill="#FF6B6B"/><rect x="195" y="220" width="40" height="5" fill="#FFFFFF"/><rect x="235" y="220" width="5" height="5" fill="#D64545"/><rect x="240" y="220" width="5" height="5" fill="#FF6B6B"/><rect x="245" y="220" width="5" height="5" fill="#FF8377"/><rect x="250" y="220" width="5" height="5" fill="#FF6B6B"/><rect x="255" y="220" width="10" height="5" fill="#D64545"/><rect x="265" y="220" width="10" height="5" fill="#FF8377"/><rect x="275" y="220" width="5" height="5" fill="#FF6B6B"/><rect x="280" y="220" width="5" height="5" fill="#D64545"/><rect x="285" y="220" width="40" height="5" fill="#FFFFFF"/><rect x="325" y="220" width="5" height="5" fill="#FF6B6B"/><rect x="330" y="220" width="5" height="5" fill="#D64545"/><rect x="335" y="220" width="10" height="5" fill="#FF8377"/><rect x="345" y="220" width="10" height="5" fill="#D64545"/><rect x="355" y="220" width="75" height="5" fill="#FF8377"/><rect x="430" y="220" width="5" height="5" fill="#FF6B6B"/><rect x="435" y="220" width="5" height="5" fill="#D64545"/><rect x="80" y="225" width="10" height="5" fill="#D64545"/><rect x="90" y="225" width="70" height="5" fill="#FF8377"/><rect x="160" y="225" width="10" height="5" fill="#D64545"/><rect x="170" y="225" width="5" height="5" fill="#FF6B6B"/><rect x="175" y="225" width="5" height="5" fill="#FF8377"/><rect x="180" y="225" width="5" height="5" fill="#FF6B6B"/><rect x="185" y="225" width="5" height="5" fill="#D64545"/><rect x="190" y="225" width="50" height="5" fill="#FFFFFF"/><rect x="240" y="225" width="5" height="5" fill="#D64545"/><rect x="245" y="225" width="5" height="5" fill="#FF6B6B"/><rect x="250" y="225" width="15" height="5" fill="#D64545"/><rect x="265" y="225" width="5" height="5" fill="#FF8377"/><rect x="270" y="225" width="5" height="5" fill="#FF6B6B"/><rect x="275" y="225" width="5" height="5" fill="#D64545"/><rect x="280" y="225" width="50" height="5" fill="#FFFFFF"/><rect x="330" y="225" width="5" height="5" fill="#D64545"/><rect x="335" y="225" width="5" height="5" fill="#FF6B6B"/><rect x="340" y="225" width="5" height="5" fill="#FF8377"/><rect x="345" y="225" width="5" height="5" fill="#FF6B6B"/><rect x="350" y="225" width="10" height="5" fill="#D64545"/><rect x="360" y="225" width="70" height="5" fill="#FF8377"/><rect x="430" y="225" width="10" height="5" fill="#D64545"/><rect x="80" y="230" width="10" height="5" fill="#D64545"/><rect x="90" y="230" width="5" height="5" fill="#FF6B6B"/><rect x="95" y="230" width="60" height="5" fill="#FF8377"/><rect x="155" y="230" width="5" height="5" fill="#FF6B6B"/><rect x="160" y="230" width="5" height="5" fill="#D64545"/><rect x="165" y="230" width="5" height="5" fill="#FF6B6B"/><rect x="170" y="230" width="10" height="5" fill="#FF8377"/><rect x="180" y="230" width="5" height="5" fill="#D64545"/><rect x="185" y="230" width="5" height="5" fill="#FF9B85"/><rect x="190" y="230" width="50" height="5" fill="#FFFFFF"/><rect x="240" y="230" width="5" height="5" fill="#FF8377"/><rect x="245" y="230" width="20" height="5" fill="#D64545"/><rect x="265" y="230" width="5" height="5" fill="#FF8377"/><rect x="270" y="230" width="5" height="5" fill="#D64545"/><rect x="275" y="230" width="5" height="5" fill="#FF8377"/><rect x="280" y="230" width="50" height="5" fill="#FFFFFF"/><rect x="330" y="230" width="5" height="5" fill="#FF9B85"/><rect x="335" y="230" width="5" height="5" fill="#D64545"/><rect x="340" y="230" width="10" height="5" fill="#FF8377"/><rect x="350" y="230" width="5" height="5" fill="#FF6B6B"/><rect x="355" y="230" width="5" height="5" fill="#D64545"/><rect x="360" y="230" width="5" height="5" fill="#FF6B6B"/><rect x="365" y="230" width="60" height="5" fill="#FF8377"/><rect x="425" y="230" width="5" height="5" fill="#FF6B6B"/><rect x="430" y="230" width="10" height="5" fill="#D64545"/><rect x="85" y="235" width="10" height="5" fill="#D64545"/><rect x="95" y="235" width="5" height="5" fill="#FF6B6B"/><rect x="100" y="235" width="45" height="5" fill="#FF8377"/><rect x="145" y="235" width="5" height="5" fill="#FF6B6B"/><rect x="150" y="235" width="15" height="5" fill="#D64545"/><rect x="165" y="235" width="15" height="5" fill="#FF8377"/><rect x="180" y="235" width="5" height="5" fill="#D64545"/><rect x="185" y="235" width="30" height="5" fill="#FFFFFF"/><rect x="215" y="235" width="15" height="5" fill="#2D2A32"/><rect x="230" y="235" width="10" height="5" fill="#FFFFFF"/><rect x="240" y="235" width="5" height="5" fill="#FF9B85"/><rect x="245" y="235" width="20" height="5" fill="#D64545"/><rect x="265" y="235" width="5" height="5" fill="#FF8377"/><rect x="270" y="235" width="5" height="5" fill="#D64545"/><rect x="275" y="235" width="5" height="5" fill="#FF9B85"/><rect x="280" y="235" width="25" height="5" fill="#FFFFFF"/><rect x="305" y="235" width="15" height="5" fill="#2D2A32"/><rect x="320" y="235" width="5" height="5" fill="#FF9B85"/><rect x="325" y="235" width="10" height="5" fill="#FFFFFF"/><rect x="335" y="235" width="5" height="5" fill="#D64545"/><rect x="340" y="235" width="15" height="5" fill="#FF8377"/><rect x="355" y="235" width="15" height="5" fill="#D64545"/><rect x="370" y="235" width="5" height="5" fill="#FF6B6B"/><rect x="375" y="235" width="45" height="5" fill="#FF8377"/><rect x="420" y="235" width="5" height="5" fill="#FF6B6B"/><rect x="425" y="235" width="10" height="5" fill="#D64545"/><rect x="85" y="240" width="15" height="5" fill="#D64545"/><rect x="100" y="240" width="5" height="5" fill="#FF6B6B"/><rect x="105" y="240" width="30" height="5" fill="#FF8377"/><rect x="135" y="240" width="5" height="5" fill="#FF6B6B"/><rect x="140" y="240" width="15" height="5" fill="#D64545"/><rect x="155" y="240" width="5" height="5" fill="#FF6B6B"/><rect x="160" y="240" width="15" height="5" fill="#FF8377"/><rect x="175" y="240" width="5" height="5" fill="#FF6B6B"/><rect x="180" y="240" width="5" height="5" fill="#D64545"/><rect x="185" y="240" width="25" height="5" fill="#FFFFFF"/><rect x="210" y="240" width="10" height="5" fill="#2D2A32"/><rect x="220" y="240" width="5" height="5" fill="#D64545"/><rect x="225" y="240" width="5" height="5" fill="#FFFFFF"/><rect x="230" y="240" width="5" height="5" fill="#FF8377"/><rect x="235" y="240" width="10" height="5" fill="#FFFFFF"/><rect x="245" y="240" width="20" height="5" fill="#D64545"/><rect x="265" y="240" width="5" height="5" fill="#FF8377"/><rect x="270" y="240" width="5" height="5" fill="#D64545"/><rect x="275" y="240" width="25" height="5" fill="#FFFFFF"/><rect x="300" y="240" width="15" height="5" fill="#2D2A32"/><rect x="315" y="240" width="5" height="5" fill="#FFFFFF"/><rect x="320" y="240" width="5" height="5" fill="#FF9B85"/><rect x="325" y="240" width="10" height="5" fill="#FFFFFF"/><rect x="335" y="240" width="5" height="5" fill="#D64545"/><rect x="340" y="240" width="5" height="5" fill="#FF6B6B"/><rect x="345" y="240" width="15" height="5" fill="#FF8377"/><rect x="360" y="240" width="5" height="5" fill="#FF6B6B"/><rect x="365" y="240" width="15" height="5" fill="#D64545"/><rect x="380" y="240" width="5" height="5" fill="#FF6B6B"/><rect x="385" y="240" width="30" height="5" fill="#FF8377"/><rect x="415" y="240" width="5" height="5" fill="#FF6B6B"/><rect x="420" y="240" width="15" height="5" fill="#D64545"/><rect x="95" y="245" width="20" height="5" fill="#D64545"/><rect x="115" y="245" width="25" height="5" fill="#FF8377"/><rect x="140" y="245" width="10" height="5" fill="#FF6B6B"/><rect x="150" y="245" width="25" height="5" fill="#FF8377"/><rect x="175" y="245" width="5" height="5" fill="#FF6B6B"/><rect x="180" y="245" width="5" height="5" fill="#D64545"/><rect x="185" y="245" width="25" height="5" fill="#FFFFFF"/><rect x="210" y="245" width="15" height="5" fill="#2D2A32"/><rect x="225" y="245" width="5" height="5" fill="#FF9B85"/><rect x="230" y="245" width="5" height="5" fill="#2D2A32"/><rect x="235" y="245" width="5" height="5" fill="#FFFFFF"/><rect x="240" y="245" width="5" height="5" fill="#FF9B85"/><rect x="245" y="245" width="20" height="5" fill="#D64545"/><rect x="265" y="245" width="5" height="5" fill="#FF8377"/><rect x="270" y="245" width="5" height="5" fill="#D64545"/><rect x="275" y="245" width="5" height="5" fill="#FF9B85"/><rect x="280" y="245" width="20" height="5" fill="#FFFFFF"/><rect x="300" y="245" width="15" height="5" fill="#2D2A32"/><rect x="315" y="245" width="5" height="5" fill="#FF9B85"/><rect x="320" y="245" width="5" height="5" fill="#2D2A32"/><rect x="325" y="245" width="5" height="5" fill="#FF9B85"/><rect x="330" y="245" width="5" height="5" fill="#FFFFFF"/><rect x="335" y="245" width="5" height="5" fill="#D64545"/><rect x="340" y="245" width="5" height="5" fill="#FF6B6B"/><rect x="345" y="245" width="25" height="5" fill="#FF8377"/><rect x="370" y="245" width="10" height="5" fill="#FF6B6B"/><rect x="380" y="245" width="25" height="5" fill="#FF8377"/><rect x="405" y="245" width="20" height="5" fill="#D64545"/><rect x="100" y="250" width="15" height="5" fill="#D64545"/><rect x="115" y="250" width="65" height="5" fill="#FF8377"/><rect x="180" y="250" width="5" height="5" fill="#D64545"/><rect x="185" y="250" width="5" height="5" fill="#FF9B85"/><rect x="190" y="250" width="20" height="5" fill="#FFFFFF"/><rect x="210" y="250" width="25" height="5" fill="#2D2A32"/><rect x="235" y="250" width="5" height="5" fill="#FFFFFF"/><rect x="240" y="250" width="5" height="5" fill="#FF9B85"/><rect x="245" y="250" width="20" height="5" fill="#D64545"/><rect x="265" y="250" width="5" height="5" fill="#FF8377"/><rect x="270" y="250" width="5" height="5" fill="#D64545"/><rect x="275" y="250" width="5" height="5" fill="#FF9B85"/><rect x="280" y="250" width="20" height="5" fill="#FFFFFF"/><rect x="300" y="250" width="25" height="5" fill="#2D2A32"/><rect x="325" y="250" width="10" height="5" fill="#FF9B85"/><rect x="335" y="250" width="5" height="5" fill="#D64545"/><rect x="340" y="250" width="65" height="5" fill="#FF8377"/><rect x="405" y="250" width="15" height="5" fill="#D64545"/><rect x="100" y="255" width="10" height="5" fill="#D64545"/><rect x="110" y="255" width="5" height="5" fill="#FF6B6B"/><rect x="115" y="255" width="65" height="5" fill="#FF8377"/><rect x="180" y="255" width="5" height="5" fill="#D64545"/><rect x="185" y="255" width="5" height="5" fill="#FF6B6B"/><rect x="190" y="255" width="20" height="5" fill="#FFFFFF"/><rect x="210" y="255" width="5" height="5" fill="#FF9B85"/><rect x="215" y="255" width="15" height="5" fill="#2D2A32"/><rect x="230" y="255" width="5" height="5" fill="#FF9B85"/><rect x="235" y="255" width="5" height="5" fill="#FFFFFF"/><rect x="240" y="255" width="25" height="5" fill="#D64545"/><rect x="265" y="255" width="5" height="5" fill="#FF8377"/><rect x="270" y="255" width="5" height="5" fill="#FF6B6B"/><rect x="275" y="255" width="5" height="5" fill="#D64545"/><rect x="280" y="255" width="20" height="5" fill="#FFFFFF"/><rect x="300" y="255" width="5" height="5" fill="#FF9B85"/><rect x="305" y="255" width="20" height="5" fill="#2D2A32"/><rect x="325" y="255" width="5" height="5" fill="#FFFFFF"/><rect x="330" y="255" width="5" height="5" fill="#FF6B6B"/><rect x="335" y="255" width="5" height="5" fill="#D64545"/><rect x="340" y="255" width="65" height="5" fill="#FF8377"/><rect x="405" y="255" width="5" height="5" fill="#FF6B6B"/><rect x="410" y="255" width="10" height="5" fill="#D64545"/><rect x="95" y="260" width="10" height="5" fill="#D64545"/><rect x="105" y="260" width="5" height="5" fill="#FF6B6B"/><rect x="110" y="260" width="70" height="5" fill="#FF8377"/><rect x="180" y="260" width="5" height="5" fill="#FF6B6B"/><rect x="185" y="260" width="5" height="5" fill="#D64545"/><rect x="190" y="260" width="5" height="5" fill="#FF9B85"/><rect x="195" y="260" width="25" height="5" fill="#FFFFFF"/><rect x="220" y="260" width="10" height="5" fill="#FF9B85"/><rect x="230" y="260" width="5" height="5" fill="#FFFFFF"/><rect x="235" y="260" width="5" height="5" fill="#FF8377"/><rect x="240" y="260" width="5" height="5" fill="#D64545"/><rect x="245" y="260" width="5" height="5" fill="#FF6B6B"/><rect x="250" y="260" width="15" height="5" fill="#D64545"/><rect x="265" y="260" width="10" height="5" fill="#FF8377"/><rect x="275" y="260" width="5" height="5" fill="#D64545"/><rect x="280" y="260" width="5" height="5" fill="#FF8377"/><rect x="285" y="260" width="25" height="5" fill="#FFFFFF"/><rect x="310" y="260" width="10" height="5" fill="#FF9B85"/><rect x="320" y="260" width="5" height="5" fill="#FFFFFF"/><rect x="325" y="260" width="5" height="5" fill="#FF9B85"/><rect x="330" y="260" width="5" height="5" fill="#D64545"/><rect x="335" y="260" width="5" height="5" fill="#FF6B6B"/><rect x="340" y="260" width="70" height="5" fill="#FF8377"/><rect x="410" y="260" width="5" height="5" fill="#FF6B6B"/><rect x="415" y="260" width="10" height="5" fill="#D64545"/><rect x="95" y="265" width="10" height="5" fill="#D64545"/><rect x="105" y="265" width="5" height="5" fill="#FF6B6B"/><rect x="110" y="265" width="75" height="5" fill="#FF8377"/><rect x="185" y="265" width="5" height="5" fill="#FF6B6B"/><rect x="190" y="265" width="5" height="5" fill="#D64545"/><rect x="195" y="265" width="5" height="5" fill="#FF9B85"/><rect x="200" y="265" width="30" height="5" fill="#FFFFFF"/><rect x="230" y="265" width="5" height="5" fill="#FF8377"/><rect x="235" y="265" width="5" height="5" fill="#D64545"/><rect x="240" y="265" width="5" height="5" fill="#FF6B6B"/><rect x="245" y="265" width="5" height="5" fill="#FF8377"/><rect x="250" y="265" width="15" height="5" fill="#D64545"/><rect x="265" y="265" width="10" height="5" fill="#FF8377"/><rect x="275" y="265" width="5" height="5" fill="#FF6B6B"/><rect x="280" y="265" width="5" height="5" fill="#D64545"/><rect x="285" y="265" width="5" height="5" fill="#FF8377"/><rect x="290" y="265" width="30" height="5" fill="#FFFFFF"/><rect x="320" y="265" width="5" height="5" fill="#FF9B85"/><rect x="325" y="265" width="5" height="5" fill="#D64545"/><rect x="330" y="265" width="5" height="5" fill="#FF6B6B"/><rect x="335" y="265" width="75" height="5" fill="#FF8377"/><rect x="410" y="265" width="5" height="5" fill="#FF6B6B"/><rect x="415" y="265" width="10" height="5" fill="#D64545"/><rect x="95" y="270" width="10" height="5" fill="#D64545"/><rect x="105" y="270" width="85" height="5" fill="#FF8377"/><rect x="190" y="270" width="5" height="5" fill="#FF6B6B"/><rect x="195" y="270" width="10" height="5" fill="#D64545"/><rect x="205" y="270" width="15" height="5" fill="#FF9B85"/><rect x="220" y="270" width="5" height="5" fill="#FF8377"/><rect x="225" y="270" width="10" height="5" fill="#D64545"/><rect x="235" y="270" width="5" height="5" fill="#FF6B6B"/><rect x="240" y="270" width="10" height="5" fill="#FF8377"/><rect x="250" y="270" width="15" height="5" fill="#D64545"/><rect x="265" y="270" width="15" height="5" fill="#FF8377"/><rect x="280" y="270" width="5" height="5" fill="#FF6B6B"/><rect x="285" y="270" width="10" height="5" fill="#D64545"/><rect x="295" y="270" width="5" height="5" fill="#FF8377"/><rect x="300" y="270" width="15" height="5" fill="#FF9B85"/><rect x="315" y="270" width="10" height="5" fill="#D64545"/><rect x="325" y="270" width="5" height="5" fill="#FF6B6B"/><rect x="330" y="270" width="85" height="5" fill="#FF8377"/><rect x="415" y="270" width="10" height="5" fill="#D64545"/><rect x="95" y="275" width="10" height="5" fill="#D64545"/><rect x="105" y="275" width="85" height="5" fill="#FF8377"/><rect x="190" y="275" width="35" height="5" fill="#D64545"/><rect x="225" y="275" width="5" height="5" fill="#FF6B6B"/><rect x="230" y="275" width="20" height="5" fill="#FF8377"/><rect x="250" y="275" width="5" height="5" fill="#FF6B6B"/><rect x="255" y="275" width="10" height="5" fill="#D64545"/><rect x="265" y="275" width="25" height="5" fill="#FF8377"/><rect x="290" y="275" width="5" height="5" fill="#FF6B6B"/><rect x="295" y="275" width="35" height="5" fill="#D64545"/><rect x="330" y="275" width="85" height="5" fill="#FF8377"/><rect x="415" y="275" width="10" height="5" fill="#D64545"/><rect x="95" y="280" width="10" height="5" fill="#D64545"/><rect x="105" y="280" width="80" height="5" fill="#FF8377"/><rect x="185" y="280" width="15" height="5" fill="#D64545"/><rect x="200" y="280" width="5" height="5" fill="#FF6B6B"/><rect x="205" y="280" width="45" height="5" fill="#FF8377"/><rect x="250" y="280" width="5" height="5" fill="#FF6B6B"/><rect x="255" y="280" width="10" height="5" fill="#D64545"/><rect x="265" y="280" width="50" height="5" fill="#FF8377"/><rect x="315" y="280" width="5" height="5" fill="#FF6B6B"/><rect x="320" y="280" width="15" height="5" fill="#D64545"/><rect x="335" y="280" width="80" height="5" fill="#FF8377"/><rect x="415" y="280" width="10" height="5" fill="#D64545"/><rect x="95" y="285" width="10" height="5" fill="#D64545"/><rect x="105" y="285" width="5" height="5" fill="#FF6B6B"/><rect x="110" y="285" width="70" height="5" fill="#FF8377"/><rect x="180" y="285" width="5" height="5" fill="#FF6B6B"/><rect x="185" y="285" width="10" height="5" fill="#D64545"/><rect x="195" y="285" width="55" height="5" fill="#FF8377"/><rect x="250" y="285" width="5" height="5" fill="#FF6B6B"/><rect x="255" y="285" width="10" height="5" fill="#D64545"/><rect x="265" y="285" width="5" height="5" fill="#FF6B6B"/><rect x="270" y="285" width="55" height="5" fill="#FF8377"/><rect x="325" y="285" width="10" height="5" fill="#D64545"/><rect x="335" y="285" width="5" height="5" fill="#FF6B6B"/><rect x="340" y="285" width="70" height="5" fill="#FF8377"/><rect x="410" y="285" width="5" height="5" fill="#FF6B6B"/><rect x="415" y="285" width="10" height="5" fill="#D64545"/><rect x="95" y="290" width="10" height="5" fill="#D64545"/><rect x="105" y="290" width="5" height="5" fill="#FF6B6B"/><rect x="110" y="290" width="65" height="5" fill="#FF8377"/><rect x="175" y="290" width="5" height="5" fill="#FF6B6B"/><rect x="180" y="290" width="10" height="5" fill="#D64545"/><rect x="190" y="290" width="5" height="5" fill="#FF6B6B"/><rect x="195" y="290" width="35" height="5" fill="#FF8377"/><rect x="230" y="290" width="5" height="5" fill="#FF6B6B"/><rect x="235" y="290" width="5" height="5" fill="#D64545"/><rect x="240" y="290" width="5" height="5" fill="#FF6B6B"/><rect x="245" y="290" width="10" height="5" fill="#FF8377"/><rect x="255" y="290" width="10" height="5" fill="#D64545"/><rect x="265" y="290" width="5" height="5" fill="#FF6B6B"/><rect x="270" y="290" width="5" height="5" fill="#FF8377"/><rect x="275" y="290" width="5" height="5" fill="#FF6B6B"/><rect x="280" y="290" width="5" height="5" fill="#D64545"/><rect x="285" y="290" width="5" height="5" fill="#FF6B6B"/><rect x="290" y="290" width="35" height="5" fill="#FF8377"/><rect x="325" y="290" width="5" height="5" fill="#FF6B6B"/><rect x="330" y="290" width="10" height="5" fill="#D64545"/><rect x="340" y="290" width="5" height="5" fill="#FF6B6B"/><rect x="345" y="290" width="65" height="5" fill="#FF8377"/><rect x="410" y="290" width="5" height="5" fill="#FF6B6B"/><rect x="415" y="290" width="10" height="5" fill="#D64545"/><rect x="100" y="295" width="10" height="5" fill="#D64545"/><rect x="110" y="295" width="5" height="5" fill="#FF6B6B"/><rect x="115" y="295" width="5" height="5" fill="#FF8377"/><rect x="120" y="295" width="5" height="5" fill="#FF6B6B"/><rect x="125" y="295" width="10" height="5" fill="#FF8377"/><rect x="135" y="295" width="5" height="5" fill="#FF6B6B"/><rect x="140" y="295" width="5" height="5" fill="#FF8377"/><rect x="145" y="295" width="30" height="5" fill="#FF6B6B"/><rect x="175" y="295" width="10" height="5" fill="#D64545"/><rect x="185" y="295" width="50" height="5" fill="#FF6B6B"/><rect x="235" y="295" width="10" height="5" fill="#2D2A32"/><rect x="245" y="295" width="5" height="5" fill="#FF6B6B"/><rect x="250" y="295" width="5" height="5" fill="#FF8377"/><rect x="255" y="295" width="10" height="5" fill="#D64545"/><rect x="265" y="295" width="10" height="5" fill="#FF6B6B"/><rect x="275" y="295" width="10" height="5" fill="#2D2A32"/><rect x="285" y="295" width="10" height="5" fill="#FF6B6B"/><rect x="295" y="295" width="5" height="5" fill="#FF8377"/><rect x="300" y="295" width="5" height="5" fill="#FF6B6B"/><rect x="305" y="295" width="10" height="5" fill="#FF8377"/><rect x="315" y="295" width="5" height="5" fill="#FF6B6B"/><rect x="320" y="295" width="5" height="5" fill="#FF8377"/><rect x="325" y="295" width="10" height="5" fill="#FF6B6B"/><rect x="335" y="295" width="10" height="5" fill="#D64545"/><rect x="345" y="295" width="65" height="5" fill="#FF6B6B"/><rect x="410" y="295" width="10" height="5" fill="#D64545"/><rect x="100" y="300" width="15" height="5" fill="#D64545"/><rect x="115" y="300" width="55" height="5" fill="#FF6B6B"/><rect x="170" y="300" width="10" height="5" fill="#D64545"/><rect x="180" y="300" width="55" height="5" fill="#FF6B6B"/><rect x="235" y="300" width="5" height="5" fill="#D64545"/><rect x="240" y="300" width="10" height="5" fill="#2D2A32"/><rect x="250" y="300" width="20" height="5" fill="#D64545"/><rect x="270" y="300" width="10" height="5" fill="#2D2A32"/><rect x="280" y="300" width="5" height="5" fill="#D64545"/><rect x="285" y="300" width="55" height="5" fill="#FF6B6B"/><rect x="340" y="300" width="10" height="5" fill="#D64545"/><rect x="350" y="300" width="55" height="5" fill="#FF6B6B"/><rect x="405" y="300" width="15" height="5" fill="#D64545"/><rect x="105" y="305" width="20" height="5" fill="#D64545"/><rect x="125" y="305" width="35" height="5" fill="#FF6B6B"/><rect x="160" y="305" width="15" height="5" fill="#D64545"/><rect x="175" y="305" width="70" height="5" fill="#FF6B6B"/><rect x="245" y="305" width="30" height="5" fill="#2D2A32"/><rect x="275" y="305" width="70" height="5" fill="#FF6B6B"/><rect x="345" y="305" width="15" height="5" fill="#D64545"/><rect x="360" y="305" width="35" height="5" fill="#FF6B6B"/><rect x="395" y="305" width="20" height="5" fill="#D64545"/><rect x="115" y="310" width="25" height="5" fill="#D64545"/><rect x="140" y="310" width="115" height="5" fill="#FF6B6B"/><rect x="255" y="310" width="15" height="5" fill="#D64545"/><rect x="270" y="310" width="110" height="5" fill="#FF6B6B"/><rect x="380" y="310" width="25" height="5" fill="#D64545"/><rect x="130" y="315" width="10" height="5" fill="#D64545"/><rect x="140" y="315" width="115" height="5" fill="#FF6B6B"/><rect x="255" y="315" width="15" height="5" fill="#D64545"/><rect x="270" y="315" width="110" height="5" fill="#FF6B6B"/><rect x="380" y="315" width="10" height="5" fill="#D64545"/><rect x="130" y="320" width="10" height="5" fill="#D64545"/><rect x="140" y="320" width="115" height="5" fill="#FF6B6B"/><rect x="255" y="320" width="15" height="5" fill="#D64545"/><rect x="270" y="320" width="110" height="5" fill="#FF6B6B"/><rect x="380" y="320" width="10" height="5" fill="#D64545"/><rect x="135" y="325" width="10" height="5" fill="#D64545"/><rect x="145" y="325" width="110" height="5" fill="#FF6B6B"/><rect x="255" y="325" width="15" height="5" fill="#D64545"/><rect x="270" y="325" width="105" height="5" fill="#FF6B6B"/><rect x="375" y="325" width="10" height="5" fill="#D64545"/><rect x="135" y="330" width="10" height="5" fill="#D64545"/><rect x="145" y="330" width="110" height="5" fill="#FF6B6B"/><rect x="255" y="330" width="15" height="5" fill="#D64545"/><rect x="270" y="330" width="105" height="5" fill="#FF6B6B"/><rect x="375" y="330" width="10" height="5" fill="#D64545"/><rect x="140" y="335" width="10" height="5" fill="#D64545"/><rect x="150" y="335" width="105" height="5" fill="#FF6B6B"/><rect x="255" y="335" width="10" height="5" fill="#D64545"/><rect x="265" y="335" width="105" height="5" fill="#FF6B6B"/><rect x="370" y="335" width="10" height="5" fill="#D64545"/><rect x="140" y="340" width="15" height="5" fill="#D64545"/><rect x="155" y="340" width="40" height="5" fill="#FF6B6B"/><rect x="195" y="340" width="10" height="5" fill="#D64545"/><rect x="205" y="340" width="50" height="5" fill="#FF6B6B"/><rect x="255" y="340" width="10" height="5" fill="#D64545"/><rect x="265" y="340" width="50" height="5" fill="#FF6B6B"/><rect x="315" y="340" width="10" height="5" fill="#D64545"/><rect x="325" y="340" width="40" height="5" fill="#FF6B6B"/><rect x="365" y="340" width="15" height="5" fill="#D64545"/><rect x="145" y="345" width="20" height="5" fill="#D64545"/><rect x="165" y="345" width="20" height="5" fill="#FF6B6B"/><rect x="185" y="345" width="20" height="5" fill="#D64545"/><rect x="205" y="345" width="50" height="5" fill="#FF6B6B"/><rect x="255" y="345" width="10" height="5" fill="#D64545"/><rect x="265" y="345" width="50" height="5" fill="#FF6B6B"/><rect x="315" y="345" width="20" height="5" fill="#D64545"/><rect x="335" y="345" width="20" height="5" fill="#FF6B6B"/><rect x="355" y="345" width="20" height="5" fill="#D64545"/><rect x="155" y="350" width="55" height="5" fill="#D64545"/><rect x="210" y="350" width="40" height="5" fill="#FF6B6B"/><rect x="250" y="350" width="20" height="5" fill="#D64545"/><rect x="270" y="350" width="40" height="5" fill="#FF6B6B"/><rect x="310" y="350" width="55" height="5" fill="#D64545"/><rect x="170" y="355" width="10" height="5" fill="#D64545"/><rect x="200" y="355" width="15" height="5" fill="#D64545"/><rect x="215" y="355" width="35" height="5" fill="#FF6B6B"/><rect x="250" y="355" width="20" height="5" fill="#D64545"/><rect x="270" y="355" width="35" height="5" fill="#FF6B6B"/><rect x="305" y="355" width="15" height="5" fill="#D64545"/><rect x="340" y="355" width="10" height="5" fill="#D64545"/><rect x="205" y="360" width="15" height="5" fill="#D64545"/><rect x="220" y="360" width="20" height="5" fill="#FF6B6B"/><rect x="240" y="360" width="15" height="5" fill="#D64545"/><rect x="265" y="360" width="15" height="5" fill="#D64545"/><rect x="280" y="360" width="20" height="5" fill="#FF6B6B"/><rect x="300" y="360" width="15" height="5" fill="#D64545"/><rect x="210" y="365" width="40" height="5" fill="#D64545"/><rect x="270" y="365" width="40" height="5" fill="#D64545"/><rect x="220" y="370" width="20" height="5" fill="#D64545"/><rect x="280" y="370" width="20" height="5" fill="#D64545"/></svg>